<svg xmlns="http://www.w3.org/2000/svg" xmlns:xlink="http://www.w3.org/1999/xlink" viewBox="0 0 66.46 66.46" width="66.46" height="66.46"><metadata><rdf:RDF xmlns:rdf="http://www.w3.org/1999/02/22-rdf-syntax-ns#" xmlns:dc="http://purl.org/dc/elements/1.1/"><rdf:Description><dc:creator>RealFaviconGenerator</dc:creator><dc:source>https://realfavicongenerator.net</dc:source></rdf:Description></rdf:RDF></metadata><defs><style>.cls-1{fill:#424244;}.cls-2{fill:url(#linear-gradient);}.cls-3{fill:#fff;}</style><linearGradient id="linear-gradient" x1="15.73" y1="33.23" x2="55.88" y2="33.23" gradientUnits="userSpaceOnUse"><stop offset="0" stop-color="#006838"></stop><stop offset="1" stop-color="#8dc63f"></stop></linearGradient></defs><g id="Layer_2" data-name="Layer 2"><g id="Layer_1-2" data-name="Layer 1"><circle cx="33.23" cy="33.23" r="33.23"></circle><path class="cls-1" d="M47,21.49v5.4a12.23,12.23,0,0,1-7-.25,5.28,5.28,0,0,1-1.08-.42.19.19,0,0,1,0-.07c0-.24,1.18-1.34,1.43-1.55a17.67,17.67,0,0,1,5.54-3.11Z"></path><path class="cls-2" d="M35.54,28.12c1.46-2,2.42-3.58,4.84-5.05a15.68,15.68,0,0,1,3.46-1.58,17.88,17.88,0,0,1,5-.85,23.13,23.13,0,0,0-3,.85,17.67,17.67,0,0,0-5.54,3.11c-.25.21-1.45,1.31-1.43,1.55a.19.19,0,0,0,0,.07,5.28,5.28,0,0,0,1.08.42,12.23,12.23,0,0,0,7,.25,8.36,8.36,0,0,0,1-.37c3.36-1.43,5.85-4.82,7.2-8.14a8.12,8.12,0,0,0,.64-2v-.09l-.21,0a13,13,0,0,1-7.08,1.39,38.77,38.77,0,0,0-4.94,0,19.11,19.11,0,0,0-7.83,2.07c-3.79,1.74-5.43,5.45-7,7.63-3.92,5.48-9.24,15-12.42,21.09-.28.54-.74,1-.68,1.71h6.63L30,37.13l4-6.71Z"></path><path class="cls-3" d="M47,44.31V50.2H26c.45-2.06,2.08-4,3.13-5.89Z"></path><path class="cls-3" d="M10.58,21.49H17c.58,0,6,9.21,6.09,9.78S20.29,37,20,36.94Z"></path><path class="cls-3" d="M47,39.16H32.3l3.56-5.83c3.1.16,6.88-.43,9.89-.08.38,0,1.27.17,1.27.57Z"></path></g></g></svg>