<svg width="42" height="46" viewBox="0 0 42 46" fill="none" xmlns="http://www.w3.org/2000/svg">
<path d="M40.7778 24.0681C40.1646 23.4549 39.4492 23.0972 38.6316 22.995C38.0184 22.995 37.4563 23.1483 36.9453 23.4549L36.1788 23.9148V12.8772C36.1788 12.6728 36.1277 12.4939 36.0255 12.3406C35.9233 12.1873 35.77 12.1107 35.5656 12.1107C35.3612 12.1107 35.1824 12.1873 35.0291 12.3406C34.8758 12.4939 34.7991 12.6728 34.7991 12.8772V24.8346L33.1128 26.2143C31.7842 27.1341 30.8133 27.7473 30.2001 28.0539V8.12489C30.2001 7.61389 30.379 7.20509 30.7367 6.89849C31.0944 6.59188 31.4776 6.43859 31.8864 6.43859H33.1128C33.6238 6.43859 34.0326 6.59188 34.3392 6.89849C34.6458 7.20509 34.7991 7.61389 34.7991 8.12489V10.1178C34.7991 10.22 34.8758 10.3477 35.0291 10.501C35.1824 10.6543 35.3612 10.731 35.5656 10.731C35.77 10.731 35.9233 10.6543 36.0255 10.501C36.1277 10.3477 36.1788 10.22 36.1788 10.1178V8.12489C36.1788 7.20509 35.8722 6.46413 35.259 5.90203C34.6458 5.33994 33.9304 5.05889 33.1128 5.05889H31.8864C31.0688 5.05889 30.3534 5.33994 29.7402 5.90203C29.127 6.46413 28.8204 7.20509 28.8204 8.12489V28.5138C28.5138 28.616 28.105 28.7182 27.594 28.8204V14.5635C27.594 13.7459 27.313 13.0305 26.7509 12.4173C26.1888 11.8041 25.4989 11.4975 24.6813 11.4975H23.4549C22.5351 11.4975 21.7942 11.8041 21.2321 12.4173C20.67 13.0305 20.3889 13.7459 20.3889 14.5635V21.462L19.1625 22.0752V19.7757C19.1625 19.0603 18.8815 18.4215 18.3194 17.8594C17.7573 17.2973 17.1185 17.0163 16.4031 17.0163H14.5635C13.8481 17.0163 13.2094 17.2973 12.6473 17.8594C12.0852 18.4215 11.8041 19.0603 11.8041 19.7757V25.9077L9.6579 27.1341L3.3726 28.8204C2.2484 29.127 1.40525 29.7913 0.84315 30.8133C0.28105 31.8353 0.1533 32.9084 0.4599 34.0326L1.2264 36.6387C1.2264 36.8431 1.30305 36.9964 1.45635 37.0986C1.60965 37.2008 1.7885 37.2263 1.9929 37.1752C2.1973 37.1241 2.3506 37.0219 2.4528 36.8686C2.555 36.7153 2.555 36.5365 2.4528 36.3321L1.8396 33.726C1.6352 32.9084 1.71185 32.1674 2.06955 31.5031C2.42725 30.8388 3.0149 30.4045 3.8325 30.2001L9.5046 28.5138L13.6437 39.858C13.8481 40.369 13.8226 41.0333 13.5671 41.8509C13.3116 42.6685 12.6728 43.2306 11.6508 43.5372L7.3584 44.6103C6.643 44.7125 5.95315 44.5847 5.28885 44.227C4.62455 43.8693 4.2413 43.2817 4.1391 42.4641L3.2193 39.2448C3.1171 39.0404 2.98935 38.8871 2.83605 38.7849C2.68275 38.6827 2.52945 38.6571 2.37615 38.7082C2.22285 38.7593 2.0951 38.8615 1.9929 39.0148C1.8907 39.1681 1.8396 39.347 1.8396 39.5514L2.7594 42.924C2.9638 43.8438 3.44925 44.5847 4.21575 45.1468C4.98225 45.7089 5.8254 45.99 6.7452 45.99C7.3584 45.99 8.4315 45.7856 9.9645 45.3768L11.9574 44.9169C13.1838 44.6103 14.1036 43.8949 14.7168 42.7707C15.2278 41.9531 15.3811 41.0333 15.1767 40.0113L29.8935 36.3321C31.1199 36.0255 32.2441 35.4634 33.2661 34.6458L40.4712 28.8204C41.4932 28.0028 41.902 27.0319 41.6976 25.9077C41.5954 25.1923 41.2888 24.5791 40.7778 24.0681ZM23.4549 12.8772H24.6813C25.0901 12.8772 25.4734 13.0305 25.8311 13.3371C26.1888 13.6437 26.3676 14.0525 26.3676 14.5635V28.8204H22.0752C21.8708 28.8204 21.7686 28.7693 21.7686 28.6671L23.1483 27.4407C24.2725 26.5209 25.039 25.2945 25.4478 23.7615C25.55 23.2505 25.4989 22.7395 25.2945 22.2285C25.0901 21.7175 24.7835 21.3087 24.3747 21.0021C23.5571 20.3889 22.6884 20.2867 21.7686 20.6955V14.5635C21.7686 14.0525 21.9219 13.6437 22.2285 13.3371C22.5351 13.0305 22.9439 12.8772 23.4549 12.8772ZM13.1838 19.7757C13.1838 19.3669 13.3116 19.0347 13.5671 18.7792C13.8226 18.5237 14.1547 18.396 14.5635 18.396H16.4031C16.8119 18.396 17.1441 18.5237 17.3996 18.7792C17.6551 19.0347 17.7828 19.3669 17.7828 19.7757V22.8417L13.1838 25.2945V19.7757ZM39.7047 27.7473L32.4996 33.726C31.5798 34.3392 30.6089 34.7991 29.5869 35.1057L14.7168 38.7849L10.731 28.0539L22.0752 21.9219C22.5862 21.7175 23.0717 21.7686 23.5316 22.0752C23.9915 22.3818 24.1703 22.8417 24.0681 23.4549C23.7615 24.7835 23.1994 25.8055 22.3818 26.5209L21.1554 27.4407C20.5422 27.8495 20.3634 28.4116 20.6189 29.127C20.8744 29.8424 21.3598 30.2001 22.0752 30.2001H26.9808C28.7182 30.2001 30.3534 29.6891 31.8864 28.6671L37.4052 24.6813C37.7118 24.4769 38.0951 24.4002 38.555 24.4513C39.0149 24.5024 39.4237 24.6813 39.7814 24.9879C40.1391 25.2945 40.3435 25.7033 40.3946 26.2143C40.4457 26.7253 40.2157 27.2363 39.7047 27.7473ZM11.1909 40.3179C11.1909 39.6025 10.9099 38.9893 10.3478 38.4783C9.78565 37.9673 9.1469 37.7118 8.4315 37.7118C7.7161 37.7118 7.1029 37.9673 6.5919 38.4783C6.0809 38.9893 5.8254 39.6025 5.8254 40.3179C5.8254 41.0333 6.0809 41.6465 6.5919 42.1575C7.1029 42.6685 7.7161 42.924 8.4315 42.924C9.1469 42.924 9.78565 42.6685 10.3478 42.1575C10.9099 41.6465 11.1909 41.0333 11.1909 40.3179ZM7.2051 40.3179C7.2051 39.9091 7.33285 39.5769 7.58835 39.3214C7.84385 39.0659 8.15045 38.9382 8.50815 38.9382C8.86585 38.9382 9.17245 39.0659 9.42795 39.3214C9.68345 39.5769 9.8112 39.8835 9.8112 40.2412C9.8112 40.5989 9.68345 40.9055 9.42795 41.161C9.17245 41.4165 8.86585 41.5443 8.50815 41.5443C8.15045 41.5443 7.84385 41.4165 7.58835 41.161C7.33285 40.9055 7.2051 40.6245 7.2051 40.3179ZM3.6792 21.1554L13.4904 11.3442L15.6366 12.4173C16.0454 12.6217 16.4542 12.6983 16.863 12.6472C17.2718 12.5961 17.6806 12.4173 18.0894 12.1107L23.3016 6.89849L23.4549 7.66499C23.4549 8.17599 23.6082 8.61034 23.9148 8.96804C24.2214 9.32574 24.7069 9.50459 25.3712 9.50459C26.0355 9.50459 26.5465 9.32574 26.9042 8.96804C27.2619 8.61034 27.4407 8.12489 27.4407 7.51168V1.99289C27.4407 1.37968 27.2363 0.894234 26.8275 0.536533C26.4187 0.178837 25.9588 -1.52588e-05 25.4478 -1.52588e-05H20.0823C19.4691 -1.52588e-05 18.9581 0.204384 18.5493 0.613186C18.1405 1.02198 17.9361 1.53299 17.9361 2.14619C17.9361 3.06599 18.3449 3.67918 19.1625 3.98579C19.5713 4.08799 19.929 4.13908 20.2356 4.13908L16.2498 8.12489L13.9503 6.89849C13.5415 6.69408 13.1072 6.61744 12.6473 6.66854C12.1874 6.71964 11.8041 6.94958 11.4975 7.35839L0.6132 18.2427C0.2044 18.6515 0 19.1369 0 19.699C0 20.2611 0.17885 20.721 0.53655 21.0787C0.89425 21.4364 1.35415 21.6664 1.91625 21.7686C2.47835 21.8708 3.066 21.6664 3.6792 21.1554ZM1.6863 19.1625L12.5706 8.27819C12.775 7.97158 13.0305 7.92049 13.3371 8.12489L16.0965 9.50459C16.3009 9.60678 16.5564 9.55569 16.863 9.35129L22.3818 3.98579C22.5862 3.78139 22.6373 3.52589 22.5351 3.21928C22.4329 2.91269 22.2285 2.75938 21.9219 2.75938H20.0823C19.8779 2.75938 19.6991 2.68274 19.5458 2.52943C19.3925 2.37614 19.3158 2.22284 19.3158 2.06953C19.3158 1.91624 19.3925 1.76294 19.5458 1.60963C19.6991 1.45634 19.8779 1.37968 20.0823 1.37968H25.4478C25.9588 1.37968 26.2143 1.58408 26.2143 1.99289V7.51168C26.2143 7.71609 26.1377 7.89494 25.9844 8.04824C25.8311 8.20153 25.6522 8.27819 25.4478 8.27819C25.2434 8.27819 25.0646 8.20153 24.9113 8.04824C24.758 7.89494 24.6813 7.71609 24.6813 7.51168V5.36549C24.6813 5.05889 24.5536 4.85448 24.2981 4.75229C24.0426 4.65009 23.8126 4.70119 23.6082 4.90559L17.0163 11.0376C16.8119 11.3442 16.5564 11.3953 16.2498 11.1909L13.6437 9.81119C13.3371 9.70898 13.0816 9.76009 12.8772 9.96449L2.6061 20.2356C2.2995 20.5422 1.9929 20.5422 1.6863 20.2356C1.4819 20.0312 1.3797 19.8523 1.3797 19.699C1.3797 19.5457 1.4819 19.3669 1.6863 19.1625Z" fill="#7CBA3E"/>
</svg>
