<svg width="38" height="46" viewBox="0 0 38 46" fill="none" xmlns="http://www.w3.org/2000/svg">
<path d="M26.9808 45.99C26.8786 45.99 26.7764 45.9389 26.6742 45.8367C22.8928 43.2817 20.159 40.4201 18.4727 37.2519C16.7864 34.0837 16.0454 30.4556 16.2498 26.3676C16.352 26.061 16.5053 25.9077 16.7097 25.9077C18.9581 25.6011 20.951 24.9879 22.6884 24.0681C23.6082 23.5571 24.6302 22.8928 25.7544 22.0752C26.1632 21.6664 26.4698 21.4109 26.6742 21.3087C26.8786 21.2065 27.083 21.2065 27.2874 21.3087C29.127 22.8417 30.7111 23.9148 32.0397 24.528C33.3683 25.1412 35.0546 25.6011 37.0986 25.9077C37.2008 25.9077 37.303 25.9588 37.4052 26.061C37.5074 26.1632 37.5585 26.2654 37.5585 26.3676C37.7629 30.4556 37.0475 34.0837 35.4123 37.2519C33.7771 40.4201 31.0688 43.2817 27.2874 45.8367C27.1852 45.9389 27.083 45.99 26.9808 45.99ZM17.3229 26.8275C17.2207 30.6089 17.9361 33.9559 19.4691 36.8686C21.0021 39.7813 23.506 42.413 26.9808 44.7636C30.3534 42.413 32.8318 39.7813 34.4159 36.8686C36 33.9559 36.6898 30.6089 36.4854 26.8275C34.5436 26.5209 32.8829 26.061 31.5032 25.4478C30.1235 24.8346 28.616 23.8637 26.9808 22.5351C25.2434 23.8637 23.7615 24.7835 22.5351 25.2945C21.1043 26.0099 19.3669 26.5209 17.3229 26.8275ZM26.9808 43.5372C26.8786 43.5372 26.7764 43.4861 26.6742 43.3839C24.017 41.6465 21.973 39.5003 20.5422 36.9453C19.5202 35.0035 18.8559 33.0106 18.5493 30.9666C18.3449 29.8424 18.2427 28.8715 18.2427 28.0539C18.3449 27.8495 18.4982 27.6962 18.7026 27.594C20.3378 27.3896 22.0752 26.7764 23.9148 25.7544C24.8346 25.2434 25.7033 24.6813 26.5209 24.0681L26.6742 23.9148C26.8786 23.8126 27.083 23.8126 27.2874 23.9148L28.5138 24.8346C29.4336 25.4478 30.4045 25.9588 31.4265 26.3676C32.7551 26.9808 33.9815 27.3896 35.1057 27.594C35.4123 27.6962 35.5656 27.8495 35.5656 28.0539C35.6678 28.8715 35.6167 29.8424 35.4123 30.9666C35.0035 33.0106 34.2881 35.0035 33.2661 36.9453C31.8353 39.5003 29.8424 41.6465 27.2874 43.3839C27.1852 43.4861 27.083 43.5372 26.9808 43.5372ZM19.3158 28.6671C19.418 30.5067 19.8268 32.3974 20.5422 34.3392C21.8708 37.6096 24.017 40.2668 26.9808 42.3108C29.9446 40.1646 32.0397 37.5074 33.2661 34.3392C34.0837 32.3974 34.4925 30.5067 34.4925 28.6671C33.0617 28.3605 31.5287 27.7473 29.8935 26.8275C28.8715 26.3165 27.9006 25.7544 26.9808 25.1412C24.3236 26.9808 21.7686 28.1561 19.3158 28.6671ZM16.5564 40.6245C13.797 40.6245 11.1654 40.3945 8.66145 39.9346C6.15755 39.4747 4.088 38.8104 2.4528 37.9417C0.8176 37.073 0 36.0766 0 34.9524V5.67208C0 5.36549 0.17885 5.21218 0.53655 5.21218C0.89425 5.21218 1.0731 5.36549 1.0731 5.67208V34.9524C1.0731 35.6678 1.76295 36.3832 3.14265 37.0986C4.52235 37.814 6.3875 38.4016 8.7381 38.8615C11.0887 39.3214 13.6948 39.5514 16.5564 39.5514C18.0894 39.5514 19.5202 39.5003 20.8488 39.3981C21.1554 39.2959 21.3343 39.4236 21.3854 39.7813C21.4365 40.139 21.2576 40.369 20.8488 40.4712C19.2136 40.5734 17.7828 40.6245 16.5564 40.6245ZM32.4996 25.9077C32.3974 25.9077 32.2952 25.831 32.193 25.6777C32.0908 25.5244 32.0397 25.3967 32.0397 25.2945V5.67208C32.0397 5.36549 32.2186 5.21218 32.5763 5.21218C32.934 5.21218 33.1128 5.36549 33.1128 5.67208V25.2945C33.1128 25.3967 33.0617 25.5244 32.9595 25.6777C32.8573 25.831 32.704 25.9077 32.4996 25.9077ZM16.5564 11.3442C13.797 11.3442 11.1654 11.1398 8.66145 10.731C6.15755 10.3222 4.088 9.68344 2.4528 8.81474C0.8176 7.94604 0 6.92403 0 5.74874C0 4.57344 0.8176 3.55144 2.4528 2.68274C4.088 1.81403 6.15755 1.14973 8.66145 0.689835C11.1654 0.229935 13.797 -1.52588e-05 16.5564 -1.52588e-05C19.3158 -1.52588e-05 21.973 0.229935 24.528 0.689835C27.083 1.14973 29.1526 1.81403 30.7367 2.68274C32.3208 3.55144 33.1128 4.57344 33.1128 5.74874C33.1128 6.92403 32.3208 7.94604 30.7367 8.81474C29.1526 9.68344 27.083 10.3222 24.528 10.731C21.973 11.1398 19.3158 11.3442 16.5564 11.3442ZM16.5564 1.07309C13.6948 1.07309 11.0887 1.30304 8.7381 1.76294C6.3875 2.22284 4.52235 2.81049 3.14265 3.52589C1.76295 4.24129 1.0731 4.95668 1.0731 5.67208C1.0731 6.38749 1.76295 7.10289 3.14265 7.81829C4.52235 8.53369 6.3875 9.12134 8.7381 9.58124C11.0887 10.0411 13.7204 10.2711 16.6331 10.2711C19.5458 10.2711 22.1774 10.0411 24.528 9.58124C26.8786 9.12134 28.7182 8.53369 30.0468 7.81829C31.3754 7.10289 32.0397 6.38749 32.0397 5.67208C32.0397 4.95668 31.3754 4.24129 30.0468 3.52589C28.7182 2.81049 26.8786 2.22284 24.528 1.76294C22.1774 1.30304 19.5202 1.07309 16.5564 1.07309ZM16.5564 21.462C13.797 21.462 11.1654 21.232 8.66145 20.7721C6.15755 20.3122 4.088 19.6479 2.4528 18.7792C0.8176 17.9105 0 16.863 0 15.6366C0 15.33 0.17885 15.1767 0.53655 15.1767C0.89425 15.1767 1.0731 15.33 1.0731 15.6366C1.0731 16.352 1.76295 17.0929 3.14265 17.8594C4.52235 18.6259 6.3875 19.2391 8.7381 19.699C11.0887 20.1589 13.7204 20.3889 16.6331 20.3889C19.5458 20.3889 22.1774 20.1589 24.528 19.699C26.8786 19.2391 28.7182 18.6259 30.0468 17.8594C31.3754 17.0929 32.0397 16.352 32.0397 15.6366C32.0397 15.33 32.2186 15.1767 32.5763 15.1767C32.934 15.1767 33.1128 15.33 33.1128 15.6366C33.1128 16.863 32.3208 17.9105 30.7367 18.7792C29.1526 19.6479 27.083 20.3122 24.528 20.7721C21.973 21.232 19.3158 21.462 16.5564 21.462ZM16.5564 30.66C13.797 30.66 11.1654 30.43 8.66145 29.9701C6.15755 29.5102 4.088 28.8459 2.4528 27.9772C0.8176 27.1085 0 26.1121 0 24.9879C0 24.5791 0.17885 24.3747 0.53655 24.3747C0.89425 24.3747 1.0731 24.5791 1.0731 24.9879C1.0731 25.7033 1.76295 26.4187 3.14265 27.1341C4.52235 27.8495 6.3875 28.4371 8.7381 28.897C11.0887 29.3569 13.6948 29.5869 16.5564 29.5869C17.1696 29.5869 17.4762 29.7657 17.4762 30.1234C17.4762 30.4811 17.2207 30.66 16.7097 30.66H16.5564ZM32.4996 25.9077C32.2952 25.9077 32.1419 25.7799 32.0397 25.5244C31.9375 25.2689 31.9375 25.0134 32.0397 24.7579C32.1419 24.5024 32.3208 24.3747 32.5763 24.3747C32.8318 24.3747 32.9851 24.5024 33.0362 24.7579C33.0873 25.0134 33.0617 25.2689 32.9595 25.5244C32.8573 25.7799 32.704 25.9077 32.4996 25.9077ZM4.9056 16.2498C4.1902 16.2498 3.6792 15.9687 3.3726 15.4066C3.066 14.8445 3.066 14.2569 3.3726 13.6437C3.6792 13.0305 4.1902 12.7239 4.9056 12.7239C5.621 12.7239 6.132 13.0305 6.4386 13.6437C6.7452 14.2569 6.7452 14.8445 6.4386 15.4066C6.132 15.9687 5.621 16.2498 4.9056 16.2498ZM4.9056 13.9503C4.599 13.9503 4.3946 14.0525 4.2924 14.2569C4.1902 14.4613 4.1902 14.6657 4.2924 14.8701C4.3946 15.0745 4.599 15.1767 4.9056 15.1767C5.2122 15.1767 5.4166 15.0745 5.5188 14.8701C5.621 14.6657 5.621 14.4613 5.5188 14.2569C5.4166 14.0525 5.2122 13.9503 4.9056 13.9503ZM16.5564 15.9432C14.5124 15.9432 12.4684 15.841 10.4244 15.6366C10.1178 15.5344 9.99005 15.3044 10.0412 14.9467C10.0923 14.589 10.2711 14.4613 10.5777 14.5635C13.6437 14.9723 16.8119 15.0489 20.0823 14.7934C23.3527 14.5379 26.1632 14.0014 28.5138 13.1838C28.8204 13.0816 29.0248 13.1838 29.127 13.4904C29.2292 13.797 29.127 14.0014 28.8204 14.1036C25.55 15.33 21.462 15.9432 16.5564 15.9432ZM4.9056 25.9077C4.1902 25.9077 3.6792 25.6011 3.3726 24.9879C3.066 24.3747 3.066 23.787 3.3726 23.2249C3.6792 22.6628 4.1902 22.3818 4.9056 22.3818C5.621 22.3818 6.132 22.6628 6.4386 23.2249C6.7452 23.787 6.7452 24.3747 6.4386 24.9879C6.132 25.6011 5.621 25.9077 4.9056 25.9077ZM4.9056 23.4549C4.599 23.4549 4.3946 23.5571 4.2924 23.7615C4.1902 23.9659 4.1902 24.1958 4.2924 24.4513C4.3946 24.7068 4.599 24.8346 4.9056 24.8346C5.2122 24.8346 5.4166 24.7068 5.5188 24.4513C5.621 24.1958 5.621 23.9659 5.5188 23.7615C5.4166 23.5571 5.2122 23.4549 4.9056 23.4549ZM16.5564 25.6011C14.5124 25.6011 12.4684 25.4478 10.4244 25.1412C10.1178 25.1412 9.99005 24.9623 10.0412 24.6046C10.0923 24.2469 10.2711 24.0681 10.5777 24.0681C14.6657 24.5791 18.7537 24.5791 22.8417 24.0681C23.1483 23.9659 23.3272 24.0936 23.3783 24.4513C23.4294 24.809 23.3016 25.039 22.995 25.1412C20.8488 25.4478 18.7026 25.6011 16.5564 25.6011ZM4.9056 35.4123C4.1902 35.4123 3.6792 35.1312 3.3726 34.5691C3.066 34.007 3.066 33.4194 3.3726 32.8062C3.6792 32.193 4.1902 31.8864 4.9056 31.8864C5.621 31.8864 6.132 32.193 6.4386 32.8062C6.7452 33.4194 6.7452 34.007 6.4386 34.5691C6.132 35.1312 5.621 35.4123 4.9056 35.4123ZM4.9056 32.9595C4.599 32.9595 4.3946 33.0872 4.2924 33.3427C4.1902 33.5982 4.1902 33.8282 4.2924 34.0326C4.3946 34.237 4.599 34.3392 4.9056 34.3392C5.2122 34.3392 5.4166 34.237 5.5188 34.0326C5.621 33.8282 5.621 33.5982 5.5188 33.3427C5.4166 33.0872 5.2122 32.9595 4.9056 32.9595ZM16.5564 35.1057C14.5124 35.1057 12.4684 35.0035 10.4244 34.7991C10.1178 34.6969 9.99005 34.4669 10.0412 34.1092C10.0923 33.7515 10.2711 33.6238 10.5777 33.726C12.5195 33.9304 14.9723 34.0326 17.9361 34.0326C18.2427 34.0326 18.396 34.2114 18.396 34.5691C18.396 34.9268 18.2427 35.1057 17.9361 35.1057H16.5564ZM25.9077 36.3321C25.8055 36.3321 25.6522 36.281 25.4478 36.1788L23.4549 34.0326C23.1483 33.8282 23.1228 33.5982 23.3783 33.3427C23.6338 33.0872 23.9148 33.0617 24.2214 33.2661L25.9077 34.9524L29.7402 31.2732C29.9446 30.9666 30.1746 30.941 30.4301 31.1965C30.6856 31.452 30.7111 31.7331 30.5067 32.0397L26.3676 36.1788C26.1632 36.281 26.0099 36.3321 25.9077 36.3321Z" fill="#7CBA3E"/>
</svg>
